<svg xmlns="http://www.w3.org/2000/svg" width="73.946" height="71.796" viewBox="0 0 73.946 71.796"><defs><style>.a{fill:#50b4b6;}</style></defs><g transform="translate(51.762)"><path class="a" d="M198.458,128.446a2.58,2.58,0,0,0,2.579-2.579V116.3a2.579,2.579,0,1,0-5.159,0v9.57A2.58,2.58,0,0,0,198.458,128.446Z" transform="translate(-195.878 -113.717)"/></g><g transform="translate(0 4.873)"><path class="a" d="M135.607,125.429h-5.159v5.159h5.159a4.964,4.964,0,0,1,4.643,5.222v5.374H76.623V135.81a4.964,4.964,0,0,1,4.643-5.222h5.158v-5.159H81.267c-5.4,0-9.8,4.657-9.8,10.381v46.161c0,5.724,4.4,10.381,9.8,10.381h54.341c5.4,0,9.8-4.657,9.8-10.381V135.81C145.41,130.086,141.012,125.429,135.607,125.429Zm0,61.764H81.267a4.964,4.964,0,0,1-4.643-5.222V146.343h63.627v35.628A4.964,4.964,0,0,1,135.607,187.193Z" transform="translate(-71.464 -125.429)"/></g><g transform="translate(24.247 4.873)"><rect class="a" width="25.452" height="5.159" transform="translate(0)"/></g><g transform="translate(17.024)"><path class="a" d="M114.963,128.446a2.58,2.58,0,0,0,2.579-2.579V116.3a2.579,2.579,0,1,0-5.159,0v9.57A2.58,2.58,0,0,0,114.963,128.446Z" transform="translate(-112.383 -113.717)"/></g><g transform="translate(12.01 31.124)"><g transform="translate(18.166 0)"><path class="a" d="M155.4,188.525h-9.21a2.192,2.192,0,0,0-2.192,2.192v9.156a2.192,2.192,0,0,0,2.192,2.192h9.21a2.192,2.192,0,0,0,2.192-2.192v-9.156A2.192,2.192,0,0,0,155.4,188.525Zm-2.192,9.156h-4.827v-4.772H153.2Z" transform="translate(-143.993 -188.525)"/></g><g transform="translate(36.331 0)"><path class="a" d="M199.059,188.525h-9.211a2.192,2.192,0,0,0-2.192,2.192v9.156a2.192,2.192,0,0,0,2.192,2.192h9.211a2.192,2.192,0,0,0,2.192-2.192v-9.156A2.192,2.192,0,0,0,199.059,188.525Zm-2.192,9.156h-4.827v-4.772h4.827Z" transform="translate(-187.656 -188.525)"/></g><g transform="translate(0 0)"><path class="a" d="M111.734,188.525h-9.211a2.192,2.192,0,0,0-2.192,2.192v9.156a2.192,2.192,0,0,0,2.192,2.192h9.211a2.192,2.192,0,0,0,2.192-2.192v-9.156A2.192,2.192,0,0,0,111.734,188.525Zm-2.192,9.156h-4.827v-4.772h4.827Z" transform="translate(-100.331 -188.525)"/></g><g transform="translate(18.166 17.033)"><path class="a" d="M155.4,229.464h-9.21a2.192,2.192,0,0,0-2.192,2.192v9.156A2.192,2.192,0,0,0,146.185,243h9.21a2.192,2.192,0,0,0,2.192-2.192v-9.156A2.192,2.192,0,0,0,155.4,229.464ZM153.2,238.62h-4.827v-4.773H153.2Z" transform="translate(-143.993 -229.464)"/></g><g transform="translate(0 17.033)"><path class="a" d="M111.734,229.464h-9.211a2.192,2.192,0,0,0-2.192,2.192v9.156A2.192,2.192,0,0,0,102.523,243h9.211a2.192,2.192,0,0,0,2.192-2.192v-9.156A2.191,2.191,0,0,0,111.734,229.464Zm-2.192,9.156h-4.827v-4.773h4.827Z" transform="translate(-100.331 -229.464)"/></g></g></svg>