<svg xmlns="http://www.w3.org/2000/svg" width="24.918" height="31.941" viewBox="0 0 24.918 31.941"><defs><style>.a{fill:#fff;}.b{fill:#6fc83d;stroke:#fff;}.c{stroke:none;}.d{fill:none;}</style></defs><path class="a" d="M524.02,664.761l-5.924-3.089a1.67,1.67,0,0,0-2.253.709l-1.3,2.639a20.431,20.431,0,0,1-7.926-9.006l2.733-.937a1.67,1.67,0,0,0,.992-2.144l-2.3-6.27a1.67,1.67,0,0,0-2.144-.992l-4.1,1.407c-.044.013-.086.029-.129.044l-.094.032c-.011,0-.021.011-.032.016l-.06.029a1.662,1.662,0,0,0-.363.219l-.06.046c-.021.019-.044.036-.065.056a2.991,2.991,0,0,0-.976,2.5,24.918,24.918,0,0,0,19.619,22.313,2.979,2.979,0,0,0,2.636-.682,1.658,1.658,0,0,0,.441-.532l2.024-4.1A1.67,1.67,0,0,0,524.02,664.761Z" transform="translate(-500 -640.451)"/><g class="b" transform="translate(12.606)"><circle class="c" cx="4.716" cy="4.716" r="4.716"/><circle class="d" cx="4.716" cy="4.716" r="4.216"/></g></svg>