<svg xmlns="http://www.w3.org/2000/svg" width="73.946" height="71.796" viewBox="0 0 73.946 71.796"><defs><style>.a{fill:#50b4b6;}</style></defs><g transform="translate(22.234 31.765)"><path class="a" d="M422.544,211.078l-8.275-10.318-4.025,3.228,10.415,12.985a2.579,2.579,0,0,0,2.012.966h.077a2.581,2.581,0,0,0,2.028-1.086l16.879-23.8-4.208-2.984Z" transform="translate(-410.244 -190.066)"/></g><g transform="translate(51.762)"><path class="a" d="M483.8,128.446a2.58,2.58,0,0,0,2.579-2.579V116.3a2.579,2.579,0,1,0-5.159,0v9.57A2.58,2.58,0,0,0,483.8,128.446Z" transform="translate(-481.216 -113.717)"/></g><g transform="translate(0 4.873)"><path class="a" d="M420.945,125.429h-5.159v5.159h5.159a4.964,4.964,0,0,1,4.643,5.222v5.374H361.961V135.81a4.964,4.964,0,0,1,4.643-5.222h5.158v-5.159H366.6c-5.405,0-9.8,4.657-9.8,10.381v46.161c0,5.724,4.4,10.381,9.8,10.381h54.341c5.4,0,9.8-4.657,9.8-10.381V135.81C430.748,130.086,426.35,125.429,420.945,125.429Zm0,61.764H366.6a4.964,4.964,0,0,1-4.643-5.222V146.343h63.628v35.628A4.963,4.963,0,0,1,420.945,187.193Z" transform="translate(-356.802 -125.429)"/></g><g transform="translate(24.247 4.873)"><rect class="a" width="25.452" height="5.159" transform="translate(0 0)"/></g><g transform="translate(17.024)"><path class="a" d="M400.3,128.446a2.58,2.58,0,0,0,2.579-2.579V116.3a2.579,2.579,0,1,0-5.159,0v9.57A2.58,2.58,0,0,0,400.3,128.446Z" transform="translate(-397.721 -113.717)"/></g></svg>