<svg xmlns="http://www.w3.org/2000/svg" width="64.567" height="70.012" viewBox="0 0 64.567 70.012"><defs><style>.a{fill:none;stroke:#50b4b6;stroke-miterlimit:10;stroke-width:2.2px;}</style></defs><g transform="translate(1.044 1.1)"><path class="a" d="M48.063,27.776V19.3C48.063,10.52,39.287,1,27.982,1S7.9,10.52,7.9,19.3v4.016" transform="translate(2.513 -1)"/><path class="a" d="M32.85,20v2.975A13.992,13.992,0,0,1,26.9,34.727" transform="translate(11.776 8.263)"/><path class="a" d="M15.9,7c0,8.33,16.809,19.338,25.288,19.338" transform="translate(6.413 1.925)"/><path class="a" d="M18.338,12c-3.57,1.488-7.438,5.355-7.438,10.413v4.463c0,5.206,3.868,10.413,9.966,13.09" transform="translate(3.975 4.363)"/><path class="a" d="M27.338,34.975a2.984,2.984,0,0,1-2.975,2.975H22.875A2.984,2.984,0,0,1,19.9,34.975h0A2.984,2.984,0,0,1,22.875,32h1.488a2.892,2.892,0,0,1,2.975,2.975Z" transform="translate(8.363 14.114)"/><path class="a" d="M23.9,38.437h1.488c8.181,0,14.875-5.653,14.875-13.537" transform="translate(10.313 10.652)"/><path class="a" d="M37.875,16H34.9V29.388h2.975a2.984,2.984,0,0,0,2.975-2.975V18.975A2.892,2.892,0,0,0,37.875,16Z" transform="translate(15.676 6.313)"/><path class="a" d="M6.875,16H9.85V29.388H6.875A2.984,2.984,0,0,1,3.9,26.413V18.975A2.984,2.984,0,0,1,6.875,16Z" transform="translate(0.563 6.313)"/><line class="a" y2="12" transform="translate(21.611 42.038)"/><rect class="a" width="6.248" height="14.727" transform="translate(16.458 56.607) rotate(-45)"/><rect class="a" width="14.727" height="6.248" transform="translate(31.334 62.498) rotate(-45)"/><path class="a" d="M17.263,39,8.784,40.934a9.118,9.118,0,0,0-6.545,5.95L.9,50.9" transform="translate(-0.9 17.526)"/><path class="a" d="M31.9,39l8.479,1.934a9.118,9.118,0,0,1,6.545,5.95l1.339,4.165" transform="translate(14.214 17.526)"/></g></svg>